<svg width="600" height="600" viewBox="0 0 98239 98312" xmlns="http://www.w3.org/2000/svg">
<path d="M 97975 50252 L 97975 51453 L 97479 51453 L 97479 52662 L 97539 52662 L 97539 53901 L 97902 53901 L 97902 55126 L 97907 55126 L 97907 56376 L 98042 56376 L 98042 57475 L 97138 57475 L 97138 58798 L 97645 58798 L 97645 59877 L 96811 59877 L 96811 61156 L 96953 61156 L 96953 62151 L 95934 62151 L 95934 63481 L 96194 63481 L 96194 64558 L 95558 64558 L 95558 65632 L 94958 65632 L 94958 67049 L 95301 67049 L 95301 67863 L 94045 67863 L 94045 69238 L 94186 69238 L 94186 70063 L 93066 70063 L 93066 71249 L 92749 71249 L 92749 72575 L 92669 72575 L 92669 73439 L 91709 73439 L 91709 74808 L 91639 74808 L 91639 75785 L 90887 75785 L 90887 76610 L 89917 76610 L 89917 77468 L 89024 77468 L 89024 78462 L 88335 78462 L 88335 79839 L 88132 79839 L 88132 80218 L 86664 80218 L 86664 81153 L 85904 81153 L 85904 82413 L 85498 82413 L 85498 83317 L 84682 83317 L 84682 83990 L 83634 83990 L 83634 84884 L 82812 84884 L 82812 85907 L 82098 85907 L 82098 86499 L 81001 86499 L 81001 87113 L 79938 87113 L 79938 88054 L 79136 88054 L 79136 88830 L 78199 88830 L 78199 89918 L 77473 89918 L 77473 90237 L 76216 90237 L 76216 90863 L 75172 90863 L 75172 91514 L 74144 91514 L 74144 91724 L 72872 91724 L 72872 92467 L 71899 92467 L 71899 93244 L 70930 93244 L 70930 93375 L 69653 93375 L 69653 94504 L 68821 94504 L 68821 94830 L 67634 94830 L 67634 95408 L 66545 95408 L 66545 95277 L 65210 95277 L 65210 95980 L 64160 95980 L 64160 96603 L 63069 96603 L 63069 96514 L 61782 96514 L 61782 97296 L 60713 97296 L 60713 97306 L 59462 97306 L 59462 97639 L 58279 97639 L 58279 97915 L 57082 97915 L 57082 97198 L 55758 97198 L 55758 98216 L 54646 98216 L 54646 97474 L 53363 97474 L 53363 97470 L 52156 97470 L 52156 98184 L 50967 98184 L 50967 97836 L 49748 97836 L 49748 98311 L 48521 98311 L 48521 98044 L 47309 98044 L 47309 97631 L 46120 97631 L 46120 97560 L 44910 97560 L 44910 98013 L 43627 98013 L 43627 97613 L 42448 97613 L 42448 97341 L 41257 97341 L 41257 96770 L 40131 96770 L 40131 96290 L 39000 96290 L 39000 96362 L 37734 96362 L 37734 96365 L 36468 96365 L 36468 96168 L 35246 96168 L 35246 95017 L 34347 95017 L 34347 94960 L 33078 94960 L 33078 94141 L 32097 94141 L 32097 94398 L 30669 94398 L 30669 93912 L 29542 93912 L 29542 93272 L 28490 93272 L 28490 92285 L 27627 92285 L 27627 92198 L 26286 92198 L 26286 90904 L 25629 90904 L 25629 90972 L 24161 90972 L 24161 89590 L 23607 89590 L 23607 89460 L 22225 89460 L 22225 88680 L 21281 88680 L 21281 87418 L 20719 87418 L 20719 87308 L 19250 87308 L 19250 86140 L 18642 86140 L 18642 85119 L 17933 85119 L 17933 84676 L 16688 84676 L 16688 83628 L 16014 83628 L 16014 82584 L 15357 82584 L 15357 81967 L 14239 81967 L 14239 81352 L 13086 81352 L 13086 80449 L 12252 80449 L 12252 78919 L 12230 78919 L 12230 78293 L 11040 78293 L 11040 77383 L 10211 77383 L 10211 76320 L 9601 76320 L 9601 75283 L 8956 75283 L 8956 74307 L 8205 74307 L 8205 73286 L 7520 73286 L 7520 72048 L 7243 72048 L 7243 70756 L 7114 70756 L 7114 69608 L 6724 69608 L 6724 68707 L 5765 68707 L 5765 67462 L 5605 67462 L 5605 66301 L 5261 66301 L 5261 65196 L 4763 65196 L 4763 64245 L 3744 64245 L 3744 62832 L 4241 62832 L 4241 61686 L 3864 61686 L 3864 60560 L 3375 60560 L 3375 59461 L 2695 59461 L 2695 58165 L 3014 58165 L 3014 57080 L 2096 57080 L 2096 55764 L 2757 55764 L 2757 54562 L 2657 54562 L 2657 53421 L 1718 53421 L 1718 52198 L 1610 52198 L 1610 50958 L 2235 50958 L 2235 50236 L 94851 50236 L 94851 48543 L 2411 48543 L 2411 47289 L 1596 47289 L 1596 46090 L 2006 46090 L 2006 44880 L 2161 44880 L 2161 43661 L 2238 43661 L 2238 42492 L 2662 42492 L 2662 41205 L 2380 41205 L 2380 40173 L 3427 40173 L 3427 38915 L 3350 38915 L 3350 37726 L 3605 37726 L 3605 36417 L 3458 36417 L 3458 35493 L 4603 35493 L 4603 34366 L 5037 34366 L 5037 32938 L 4667 32938 L 4667 31795 L 5114 31795 L 5114 30668 L 5600 30668 L 5600 29844 L 6734 29844 L 6734 28729 L 7207 28729 L 7207 27456 L 7392 27456 L 7392 26408 L 8019 26408 L 8019 25188 L 8354 25188 L 8354 24485 L 9541 24485 L 9541 23546 L 10318 23546 L 10318 22529 L 10972 22529 L 10972 21425 L 11513 21425 L 11513 20700 L 12557 20700 L 12557 19461 L 12947 19461 L 12947 18679 L 13902 18679 L 13902 17868 L 14809 17868 L 14809 16883 L 15527 16883 L 15527 15849 L 16207 15849 L 16207 15014 L 17093 15014 L 17093 14095 L 17903 14095 L 17903 13455 L 18960 13455 L 18960 12395 L 19665 12395 L 19665 12096 L 20978 12096 L 20978 11398 L 21965 11398 L 21965 10257 L 22647 10257 L 22647 9721 L 23757 9721 L 23757 8872 L 24664 8872 L 24664 8596 L 25919 8596 L 25919 7824 L 26880 7824 L 26880 7671 L 28172 7671 L 28172 7103 L 29237 7103 L 29237 5921 L 30027 5921 L 30027 6089 L 31429 6089 L 31429 5521 L 32504 5521 L 32504 4554 L 33440 4554 L 33440 4529 L 34724 4529 L 34724 3811 L 35774 3811 L 35774 3455 L 36946 3455 L 36946 3188 L 38142 3188 L 38142 2905 L 39332 2905 L 39332 3075 L 40614 3075 L 40614 3113 L 41851 3113 L 41851 2445 L 42971 2445 L 42971 2120 L 44158 2120 L 44158 2569 L 45429 2569 L 45429 1852 L 46588 1852 L 46588 1943 L 47816 1943 L 47816 2254 L 49041 2254 L 49041 1803 L 50253 1803 L 50253 2228 L 51462 2228 L 51462 1909 L 52692 1909 L 52692 2119 L 53900 2119 L 53900 1826 L 55155 1826 L 55155 2730 L 56273 2730 L 56273 2449 L 57540 2449 L 57540 2339 L 58801 2339 L 58801 2901 L 59937 2901 L 59937 3035 L 61159 3035 L 61159 3459 L 62312 3459 L 62312 3791 L 63485 3791 L 63485 4174 L 64643 4174 L 64643 4536 L 65807 4536 L 65807 5066 L 66911 5066 L 66911 5915 L 67879 5915 L 67879 5928 L 69188 5928 L 69188 6764 L 70141 6764 L 70141 7203 L 71273 7203 L 71273 7294 L 72594 7294 L 72594 7751 L 73741 7751 L 73741 8749 L 74576 8749 L 74576 9047 L 75826 9047 L 75826 10217 L 76520 10217 L 76520 10745 L 77629 10745 L 77629 11725 L 78417 11725 L 78417 12212 L 79569 12212 L 79569 12742 L 80707 12742 L 80707 13918 L 81306 13918 L 81306 14507 L 82407 14507 L 82407 15516 L 83127 15516 L 83127 16462 L 83892 16462 L 83892 16920 L 85168 16920 L 85168 18095 L 85689 18095 L 85689 18999 L 86499 18999 L 86499 19958 L 87241 19958 L 87241 20793 L 88145 20793 L 88145 21697 L 88970 21697 L 88970 22535 L 89906 22535 L 89906 23729 L 90321 23729 L 90321 24836 L 90848 24836 L 90848 25720 L 91745 25720 L 91745 26940 L 92065 26940 L 92065 28028 L 92606 28028 L 92606 29038 L 93307 29038 L 93307 30315 L 93443 30315 L 93443 31116 L 94650 31116 L 94650 32401 L 94739 32401 L 94739 33654 L 94859 33654 L 94859 34617 L 95791 34617 L 95791 35849 L 95946 35849 L 95946 36924 L 96624 36924 L 96624 38269 L 96308 38269 L 96308 39322 L 97138 39322 L 97138 40541 L 97288 40541 L 97288 41855 L 96860 41855 L 96860 42997 L 97372 42997 L 97372 44221 L 97358 44221 L 97358 45361 L 98131 45361 L 98131 46582 L 98238 46582 L 98238 47836 L 97623 47836 L 97623 49040 L 97819 49040 L 97819 50252 Z" fill="none" stroke="blue" stroke-width="100" />
<rect x="5605" y="50236" width="89246" height="17226" fill="none" stroke="red" stroke-width="100" />
</svg>